<?xml version="1.0" standalone="no"?>
<!DOCTYPE svg PUBLIC "-//W3C//DTD SVG 20010904//EN"
 "http://www.w3.org/TR/2001/REC-SVG-20010904/DTD/svg10.dtd">
<svg version="1.0" xmlns="http://www.w3.org/2000/svg"
 width="400.000000pt" height="400.000000pt" viewBox="0 0 400.000000 400.000000"
 preserveAspectRatio="xMidYMid meet">
<metadata>
Created by potrace 1.14, written by Peter Selinger 2001-2017
</metadata>
<g transform="translate(0.000000,400.000000) scale(0.100000,-0.100000)"
fill="#000000" stroke="none">
<path d="M0 2000 l0 -2000 2000 0 2000 0 0 2000 0 2000 -2000 0 -2000 0 0
-2000z m1315 1700 c3 -5 1 -10 -4 -10 -6 0 -11 5 -11 10 0 6 2 10 4 10 3 0 8
-4 11 -10z m-41 -57 c3 -10 15 -112 26 -228 11 -115 27 -245 35 -287 16 -80
49 -194 63 -215 5 -8 37 -2 120 23 178 54 288 43 485 -50 54 -24 97 -41 97
-36 0 17 -64 72 -114 97 l-51 26 40 14 c119 42 291 54 403 28 109 -26 272
-114 331 -179 l24 -26 -49 0 c-203 0 -407 -162 -403 -320 l1 -45 9 53 c5 29
18 69 28 90 28 56 113 130 189 165 60 27 77 31 162 31 74 0 107 -5 150 -22 54
-21 138 -81 95 -67 -114 37 -349 -15 -463 -102 -51 -39 -31 -38 34 2 225 136
559 99 581 -64 3 -23 3 -41 0 -41 -4 0 -28 14 -54 30 -74 47 -144 65 -258 64
-164 0 -296 -50 -404 -154 -175 -168 -123 -413 106 -503 206 -80 487 -3 620
171 l32 42 35 -63 c45 -80 54 -138 32 -205 l-17 -51 -40 28 c-48 35 -126 56
-180 47 -21 -3 -63 -17 -91 -30 -29 -13 -109 -46 -178 -74 -357 -143 -528
-178 -805 -168 -93 3 -208 9 -255 12 -99 7 -155 -5 -201 -43 -101 -85 -88
-247 30 -363 107 -105 232 -175 465 -259 l100 -36 13 -44 c7 -25 11 -46 9 -49
-8 -7 -182 29 -276 58 -568 175 -898 709 -927 1500 -7 190 7 298 63 520 73
283 161 490 261 615 27 33 59 75 71 93 26 35 48 41 56 15z m1058 -54 c4 -19
16 -95 28 -169 11 -74 34 -186 51 -248 18 -62 29 -115 26 -118 -3 -3 -22 -1
-44 5 -85 24 -318 6 -385 -30 -28 -15 -23 1 36 129 29 64 57 128 61 142 18 61
127 251 174 303 31 34 44 30 53 -14z m-124 6 c-3 -3 -9 2 -12 12 -6 14 -5 15
5 6 7 -7 10 -15 7 -18z m-871 -9 c-7 -14 -13 -23 -15 -21 -7 6 9 45 18 45 4 0
3 -11 -3 -24z m-271 -6 c0 -12 -4 -16 -9 -11 -5 5 -6 14 -3 20 10 15 12 14 12
-9z m-7 -61 c-6 -12 -13 -18 -16 -15 -3 3 -1 12 5 19 7 8 8 18 4 22 -4 5 -1 5
6 1 9 -5 9 -12 1 -27z m-77 -35 c-9 -16 -10 -14 -9 8 1 15 6 23 11 18 4 -4 4
-16 -2 -26z m1435 -76 c-3 -7 -5 -2 -5 12 0 14 2 19 5 13 2 -7 2 -19 0 -25z
m-1433 -4 c3 -8 2 -12 -4 -9 -6 3 -10 10 -10 16 0 14 7 11 14 -7z m1107 -17
c-10 -9 -11 -8 -5 6 3 10 9 15 12 12 3 -3 0 -11 -7 -18z m-8 -44 c-3 -7 -6
-13 -8 -13 -2 0 -5 6 -8 13 -3 8 1 14 8 14 7 0 11 -6 8 -14z m-1179 -59 c3 -8
2 -12 -4 -9 -6 3 -10 10 -10 16 0 14 7 11 14 -7z m503 -26 c-3 -8 -6 -5 -6 6
-1 11 2 17 5 13 3 -3 4 -12 1 -19z m10 -80 c-3 -8 -6 -5 -6 6 -1 11 2 17 5 13
3 -3 4 -12 1 -19z m-520 -20 c-3 -8 -6 -5 -6 6 -1 11 2 17 5 13 3 -3 4 -12 1
-19z m500 -30 c-3 -8 -6 -5 -6 6 -1 11 2 17 5 13 3 -3 4 -12 1 -19z m24 -11
c-10 -9 -11 -8 -5 6 3 10 9 15 12 12 3 -3 0 -11 -7 -18z m-554 -69 c-3 -8 -6
-5 -6 6 -1 11 2 17 5 13 3 -3 4 -12 1 -19z m1663 -10 c0 -18 -2 -20 -9 -8 -6
8 -7 18 -5 22 9 14 14 9 14 -14z m-733 -24 c-3 -3 -12 -4 -19 -1 -8 3 -5 6 6
6 11 1 17 -2 13 -5z m68 -4 c3 -5 2 -10 -4 -10 -5 0 -13 5 -16 10 -3 6 -2 10
4 10 5 0 13 -4 16 -10z m-278 -6 c-3 -3 -12 -4 -19 -1 -8 3 -5 6 6 6 11 1 17
-2 13 -5z m-750 -86 c-3 -8 -6 -5 -6 6 -1 11 2 17 5 13 3 -3 4 -12 1 -19z
m-20 -90 c-3 -7 -5 -2 -5 12 0 14 2 19 5 13 2 -7 2 -19 0 -25z m-10 -55 c-3
-10 -5 -4 -5 12 0 17 2 24 5 18 2 -7 2 -21 0 -30z m2108 -3 c3 -6 -1 -7 -9 -4
-18 7 -21 14 -7 14 6 0 13 -4 16 -10z m70 -68 c-3 -3 -11 0 -18 7 -9 10 -8 11
6 5 10 -3 15 -9 12 -12z m39 -41 c-2 -3 -12 3 -22 13 -16 17 -16 18 5 5 12 -7
20 -15 17 -18z m-2243 -42 c-5 -30 -9 -42 -10 -28 -1 30 10 92 15 86 3 -2 0
-28 -5 -58z m2323 -45 c3 -8 2 -12 -4 -9 -6 3 -10 10 -10 16 0 14 7 11 14 -7z
m-253 -44 c265 -50 338 -276 147 -456 -58 -55 -109 -85 -195 -115 -217 -74
-473 16 -513 183 -23 95 5 172 92 255 119 112 303 164 469 133z m-2074 -127
c-2 -16 -4 -3 -4 27 0 30 2 43 4 28 2 -16 2 -40 0 -55z m2380 -100 c-3 -10 -5
-2 -5 17 0 19 2 27 5 18 2 -10 2 -26 0 -35z m-2410 -135 c-3 -8 -6 -5 -6 6 -1
11 2 17 5 13 3 -3 4 -12 1 -19z m2471 -113 c-3 -3 -9 2 -12 12 -6 14 -5 15 5
6 7 -7 10 -15 7 -18z m-2389 -75 c0 -9 -4 -8 -9 5 -5 11 -9 27 -9 35 0 9 4 8
9 -5 5 -11 9 -27 9 -35z m2418 -72 c-3 -7 -5 -2 -5 12 0 14 2 19 5 13 2 -7 2
-19 0 -25z m20 -40 c-3 -8 -6 -5 -6 6 -1 11 2 17 5 13 3 -3 4 -12 1 -19z
m-337 -12 c0 -2 -9 -6 -20 -9 -11 -3 -18 -1 -14 4 5 9 34 13 34 5z m135 -24
c-3 -3 -11 0 -18 7 -9 10 -8 11 6 5 10 -3 15 -9 12 -12z m-2196 -52 c0 -9 -4
-8 -9 5 -5 11 -9 27 -9 35 0 9 4 8 9 -5 5 -11 9 -27 9 -35z m1986 12 c-6 -7
-34 11 -29 19 3 5 11 3 19 -4 7 -6 12 -13 10 -15z m375 -7 c0 -5 -5 -3 -10 5
-5 8 -10 20 -10 25 0 6 5 3 10 -5 5 -8 10 -19 10 -25z m-440 0 c-14 -8 -32
-14 -40 -14 -8 0 -1 6 15 14 40 18 57 18 25 0z m369 -39 c-3 -3 -11 5 -18 17
-13 21 -12 21 5 5 10 -10 16 -20 13 -22z m-444 4 c-3 -5 -14 -10 -23 -9 -14 0
-13 2 3 9 27 11 27 11 20 0z m432 -42 c-3 -8 -6 -5 -6 6 -1 11 2 17 5 13 3 -3
4 -12 1 -19z m-530 -4 c-3 -3 -12 -4 -19 -1 -8 3 -5 6 6 6 11 1 17 -2 13 -5z
m-77 -24 c-8 -5 -22 -9 -30 -9 -10 0 -8 3 5 9 27 12 43 12 25 0z m157 4 c-3
-3 -12 -4 -19 -1 -8 3 -5 6 6 6 11 1 17 -2 13 -5z m-1777 -39 c0 -5 -5 -3 -10
5 -5 8 -10 20 -10 25 0 6 5 3 10 -5 5 -8 10 -19 10 -25z m1630 5 c-24 -15 -36
-11 -14 4 10 8 21 12 24 10 2 -3 -2 -9 -10 -14z m310 10 c8 -5 11 -10 5 -10
-5 0 -17 5 -25 10 -8 5 -10 10 -5 10 6 0 17 -5 25 -10z m287 -22 c-3 -8 -6 -5
-6 6 -1 11 2 17 5 13 3 -3 4 -12 1 -19z m-757 -8 c0 -5 -4 -10 -10 -10 -5 0
-10 5 -10 10 0 6 5 10 10 10 6 0 10 -4 10 -10z m405 -10 c-3 -5 -16 -15 -28
-21 -19 -9 -19 -8 3 10 28 23 34 26 25 11z m364 -45 c0 -5 -4 -3 -9 5 -5 8 -9
22 -9 30 0 16 17 -16 18 -35z m-1552 29 c-3 -3 -12 -4 -19 -1 -8 3 -5 6 6 6
11 1 17 -2 13 -5z m-134 -21 c-4 -11 -3 -14 5 -9 20 12 13 0 -10 -20 -19 -15
-20 -16 -9 -1 7 9 9 17 3 17 -15 0 -33 -26 -24 -35 4 -5 1 -5 -6 -1 -11 6 -7
15 14 37 32 33 36 35 27 12z m295 0 c-10 -2 -28 -2 -40 0 -13 2 -5 4 17 4 22
1 32 -1 23 -4z m415 0 c-7 -2 -19 -2 -25 0 -7 3 -2 5 12 5 14 0 19 -2 13 -5z
m517 -9 c0 -2 -7 -4 -15 -4 -8 0 -15 4 -15 10 0 5 7 7 15 4 8 -4 15 -8 15 -10z
m-1759 -21 c-12 -20 -14 -14 -5 12 4 9 9 14 11 11 3 -2 0 -13 -6 -23z m972 20
c-7 -2 -19 -2 -25 0 -7 3 -2 5 12 5 14 0 19 -2 13 -5z m195 0 c-16 -2 -40 -2
-55 0 -16 2 -3 4 27 4 30 0 43 -2 28 -4z m-345 -10 c-7 -2 -19 -2 -25 0 -7 3
-2 5 12 5 14 0 19 -2 13 -5z m85 0 c-10 -2 -28 -2 -40 0 -13 2 -5 4 17 4 22 1
32 -1 23 -4z m359 -9 c-3 -3 -12 -4 -19 -1 -8 3 -5 6 6 6 11 1 17 -2 13 -5z
m657 -35 c11 -33 2 -71 -27 -104 l-22 -27 -51 27 c-55 29 -143 54 -189 55 -22
1 -4 10 63 34 51 18 95 36 99 40 4 4 32 6 62 4 50 -3 57 -6 65 -29z m-1077 15
c-3 -3 -12 -4 -19 -1 -8 3 -5 6 6 6 11 1 17 -2 13 -5z m400 0 c-3 -3 -12 -4
-19 -1 -8 3 -5 6 6 6 11 1 17 -2 13 -5z m-774 -19 c-3 -9 -8 -14 -10 -11 -3 3
-2 9 2 15 9 16 15 13 8 -4z m1771 -10 c-4 -8 -11 -15 -16 -15 -6 0 -5 6 2 15
7 8 14 15 16 15 2 0 1 -7 -2 -15z m-258 -23 c-17 -16 -18 -16 -5 5 7 12 15 20
18 17 3 -2 -3 -12 -13 -22z m187 13 c-3 -9 -8 -14 -10 -11 -3 3 -2 9 2 15 9
16 15 13 8 -4z m-2125 -20 c-3 -3 -9 2 -12 12 -6 14 -5 15 5 6 7 -7 10 -15 7
-18z m1429 9 c-3 -3 -12 -4 -19 -1 -8 3 -5 6 6 6 11 1 17 -2 13 -5z m-1443
-20 c3 -8 2 -12 -4 -9 -6 3 -10 10 -10 16 0 14 7 11 14 -7z m2208 -7 c-7 -8
-8 -18 -4 -22 4 -5 1 -5 -5 -1 -10 5 -10 11 -1 26 7 11 14 17 17 15 2 -3 -1
-11 -7 -18z m-899 -4 c-7 -2 -21 -2 -30 0 -10 3 -4 5 12 5 17 0 24 -2 18 -5z
m632 -3 c3 -5 1 -10 -4 -10 -6 0 -11 5 -11 10 0 6 2 10 4 10 3 0 8 -4 11 -10z
m-1894 -22 c11 -21 11 -22 -4 -9 -10 7 -17 17 -17 22 0 15 9 10 21 -13z m724
2 c3 -5 2 -10 -4 -10 -5 0 -13 5 -16 10 -3 6 -2 10 4 10 5 0 13 -4 16 -10z
m1405 6 c0 -3 -4 -8 -10 -11 -5 -3 -10 -1 -10 4 0 6 5 11 10 11 6 0 10 -2 10
-4z m-1317 -23 c-7 -2 -21 -2 -30 0 -10 3 -4 5 12 5 17 0 24 -2 18 -5z m44 1
c-3 -3 -12 -4 -19 -1 -8 3 -5 6 6 6 11 1 17 -2 13 -5z m1243 -13 c0 -5 -9 -19
-20 -32 l-20 -24 17 32 c19 34 23 39 23 24z m-1589 -24 c-10 -9 -11 -8 -5 6 3
10 9 15 12 12 3 -3 0 -11 -7 -18z m53 -22 c3 -8 1 -15 -4 -15 -6 0 -10 7 -10
15 0 8 2 15 4 15 2 0 6 -7 10 -15z m1297 -2 c13 -16 12 -17 -3 -4 -17 13 -22
21 -14 21 2 0 10 -8 17 -17z m127 -22 c-13 -15 -25 -27 -26 -25 -6 4 32 53 41
54 5 0 -2 -13 -15 -29z m-577 -8 c13 -16 12 -17 -3 -4 -10 7 -18 15 -18 17 0
8 8 3 21 -13z m622 -18 c-3 -9 -8 -14 -10 -11 -3 3 -2 9 2 15 9 16 15 13 8 -4z
m-1436 -10 c0 -8 -4 -12 -9 -9 -5 3 -6 10 -3 15 9 13 12 11 12 -6z m1353 0 c0
-8 -4 -15 -10 -15 -5 0 -7 7 -4 15 4 8 8 15 10 15 2 0 4 -7 4 -15z m-1492 -40
c-3 -3 -9 2 -12 12 -6 14 -5 15 5 6 7 -7 10 -15 7 -18z m87 5 c3 -6 -1 -7 -9
-4 -18 7 -21 14 -7 14 6 0 13 -4 16 -10z m-415 -29 c14 -21 17 -32 9 -37 -7
-4 -9 -3 -5 4 3 6 2 13 -4 17 -11 7 -33 45 -26 45 3 0 14 -13 26 -29z m361 12
c13 -16 12 -17 -3 -4 -17 13 -22 21 -14 21 2 0 10 -8 17 -17z m1499 -18 c14
-19 14 -19 -2 -6 -10 7 -18 18 -18 24 0 6 1 8 3 6 1 -2 9 -13 17 -24z m-306
-11 c4 -10 1 -14 -6 -12 -15 5 -23 28 -10 28 5 0 13 -7 16 -16z m-1154 -5 c0
-5 6 -7 13 -3 6 4 9 3 4 -1 -4 -5 5 -17 20 -27 16 -10 23 -18 18 -18 -16 0
-82 59 -67 60 6 0 12 -5 12 -11z m218 0 c-2 -3 4 -14 12 -25 14 -18 14 -18 -2
-5 -10 7 -16 17 -13 21 3 5 0 11 -5 13 -7 4 -6 5 1 4 6 -2 9 -5 7 -8z m-153
-17 c-3 -3 -11 0 -18 7 -9 10 -8 11 6 5 10 -3 15 -9 12 -12z m1233 -1 c3 -8
-1 -12 -9 -9 -7 2 -15 10 -17 17 -3 8 1 12 9 9 7 -2 15 -10 17 -17z m205 -9
c4 9 6 9 6 1 2 -23 -18 -23 -29 -1 -10 21 -10 22 3 5 11 -14 16 -15 20 -5z
m-1163 -80 c-5 -2 -6 -11 -3 -20 3 -9 2 -14 -2 -9 -5 4 -9 17 -10 30 -1 15 -8
21 -21 19 -14 -2 -15 0 -6 6 10 7 10 11 -3 22 -8 7 -15 17 -15 23 0 6 15 -7
34 -29 19 -21 30 -40 26 -42z m637 56 c-3 -8 -6 -5 -6 6 -1 11 2 17 5 13 3 -3
4 -12 1 -19z m893 -13 c0 -5 -5 -3 -10 5 -5 8 -10 20 -10 25 0 6 5 3 10 -5 5
-8 10 -19 10 -25z m-606 0 c6 -16 -4 -55 -13 -55 -16 0 -53 50 -48 63 7 18 53
11 61 -8z m-1159 -3 c-3 -3 -11 0 -18 7 -9 10 -8 11 6 5 10 -3 15 -9 12 -12z
m160 8 c-3 -5 -12 -10 -18 -10 -7 0 -6 4 3 10 19 12 23 12 15 0z m1261 -10 c0
-12 -4 -16 -9 -11 -5 5 -6 14 -3 20 10 15 12 14 12 -9z m154 16 c0 -2 -7 -7
-16 -10 -8 -3 -12 -2 -9 4 6 10 25 14 25 6z m-2006 -15 c3 -5 -1 -14 -8 -20
-10 -9 -16 -9 -21 -1 -4 6 -1 9 7 8 7 -2 12 3 11 10 -3 14 3 16 11 3z m2137
-14 c-10 -9 -11 -8 -5 6 3 10 9 15 12 12 3 -3 0 -11 -7 -18z m-653 -16 c3 -8
-1 -12 -9 -9 -7 2 -15 10 -17 17 -3 8 1 12 9 9 7 -2 15 -10 17 -17z m-978 -1
c8 -5 11 -10 5 -10 -5 0 -17 5 -25 10 -8 5 -10 10 -5 10 6 0 17 -5 25 -10z
m1605 -10 c3 -6 -1 -7 -9 -4 -18 7 -21 14 -7 14 6 0 13 -4 16 -10z m-1480 -11
c11 -16 1 -19 -13 -3 -7 8 -8 14 -3 14 5 0 13 -5 16 -11z m1245 -24 c0 -5 -5
-3 -10 5 -5 8 -10 20 -10 25 0 6 5 3 10 -5 5 -8 10 -19 10 -25z m-1285 15 c-3
-5 -12 -10 -18 -10 -7 0 -6 4 3 10 19 12 23 12 15 0z m1087 -15 c3 -16 1 -25
-7 -25 -13 0 -27 35 -17 44 11 12 20 5 24 -19z m305 19 c-3 -3 -12 -4 -19 -1
-8 3 -5 6 6 6 11 1 17 -2 13 -5z m-1297 -23 c0 -14 -26 -20 -41 -9 -11 8 -11
9 3 4 10 -3 20 -1 23 4 8 12 15 13 15 1z m1407 -7 c-3 -3 -12 -4 -19 -1 -8 3
-5 6 6 6 11 1 17 -2 13 -5z m-481 -32 c32 -25 44 -53 33 -74 -14 -26 -34 -22
-63 13 -48 57 -24 105 30 61z m387 1 c-7 -2 -19 -2 -25 0 -7 3 -2 5 12 5 14 0
19 -2 13 -5z m-493 -29 c0 -8 -4 -12 -10 -9 -5 3 -10 13 -10 21 0 8 5 12 10 9
6 -3 10 -13 10 -21z m465 6 c3 -6 -1 -7 -9 -4 -18 7 -21 14 -7 14 6 0 13 -4
16 -10z m-1780 -9 c3 -5 2 -12 -3 -15 -5 -3 -9 1 -9 9 0 17 3 19 12 6z m1190
-34 c2 -25 18 -92 25 -102 4 -5 8 -30 8 -55 l0 -46 -55 -13 c-31 -7 -61 -15
-68 -17 -11 -5 -41 43 -36 60 1 4 -3 14 -9 20 -5 7 -7 15 -4 18 3 3 -2 23 -10
43 -9 21 -16 40 -16 44 0 16 148 76 160 64 3 -2 5 -10 5 -16z m548 -2 c-3 -9
-8 -14 -10 -11 -3 3 -2 9 2 15 9 16 15 13 8 -4z m72 -23 c-3 -3 -11 0 -18 7
-9 10 -8 11 6 5 10 -3 15 -9 12 -12z m201 -7 c-11 -8 -25 -15 -30 -15 -6 1 0
7 14 15 32 19 40 18 16 0z m-501 -44 c3 -5 1 -12 -4 -15 -5 -3 -11 1 -15 9 -6
16 9 21 19 6z m289 -36 c-4 -10 0 -15 12 -16 15 0 15 -2 4 -6 -8 -3 -18 -11
-22 -17 -6 -8 -5 39 1 52 5 10 9 -1 5 -13z m-1441 -22 c-7 -2 -19 -2 -25 0 -7
3 -2 5 12 5 14 0 19 -2 13 -5z m1491 -29 c3 -8 2 -12 -4 -9 -6 3 -10 10 -10
16 0 14 7 11 14 -7z m-583 -27 c-10 -9 -11 -8 -5 6 3 10 9 15 12 12 3 -3 0
-11 -7 -18z m-734 -23 c-3 -3 -12 -4 -19 -1 -8 3 -5 6 6 6 11 1 17 -2 13 -5z
m183 -213 c0 -14 -29 -21 -36 -9 -4 6 -3 8 4 4 6 -3 13 -2 17 4 8 12 15 13 15
1z m968 -26 c-3 -3 -9 2 -12 12 -6 14 -5 15 5 6 7 -7 10 -15 7 -18z m-932 -13
c1 -7 0 -8 -3 -2 -3 8 -9 7 -19 -1 -12 -10 -13 -9 -8 5 7 18 26 17 30 -2z
m149 -21 c3 -5 2 -12 -3 -15 -5 -3 -9 1 -9 9 0 17 3 19 12 6z m-75 -57 c0 -8
-19 -13 -24 -6 -3 5 1 9 9 9 8 0 15 -2 15 -3z m791 -21 c13 -16 12 -17 -3 -4
-17 13 -22 21 -14 21 2 0 10 -8 17 -17z m-681 -58 c0 -2 -6 -5 -13 -8 -8 -3
-14 1 -14 8 0 7 6 11 14 8 7 -3 13 -6 13 -8z m177 -71 c-3 -3 -12 -4 -19 -1
-8 3 -5 6 6 6 11 1 17 -2 13 -5z m226 -1 c-7 -2 -19 -2 -25 0 -7 3 -2 5 12 5
14 0 19 -2 13 -5z"/>
<path d="M1610 2604 c-90 -24 -171 -67 -233 -124 -69 -63 -97 -113 -102 -183
l-4 -52 9 48 c33 180 267 321 504 303 101 -7 200 -51 245 -108 10 -14 3 -12
-30 6 -105 58 -266 57 -393 -2 -59 -28 -131 -80 -123 -89 3 -2 33 12 68 31 35
19 88 41 118 50 173 51 386 -25 416 -147 l7 -26 -58 31 c-173 94 -415 69 -594
-61 -173 -126 -200 -327 -62 -466 98 -99 279 -134 456 -90 132 34 268 136 321
242 25 50 30 70 30 138 0 63 -4 87 -21 115 -11 20 -23 56 -27 81 -8 57 -70
181 -112 224 -36 36 -104 70 -167 85 -62 14 -184 11 -248 -6z m361 -283 c314
-118 185 -490 -195 -568 -131 -26 -274 4 -367 77 -80 64 -106 188 -60 283 45
92 168 181 303 217 95 26 236 22 319 -9z"/>
<path d="M1603 2223 c-7 -3 -10 -17 -6 -37 5 -32 4 -33 -21 -29 -30 6 -34 -4
-9 -22 15 -11 15 -13 -5 -19 -28 -9 -29 -26 -1 -26 18 0 20 -4 14 -30 -8 -35
7 -40 28 -10 14 20 15 20 27 -10 15 -36 35 -34 35 3 -1 31 -1 31 25 15 22 -14
28 -10 33 18 2 10 9 32 16 48 14 35 1 49 -37 39 -22 -5 -23 -4 -13 16 7 12 9
26 6 31 -9 14 -42 12 -48 -2 -3 -10 -8 -9 -18 3 -8 9 -19 15 -26 12z"/>
<path d="M2188 1930 c-4 -67 -13 -116 -31 -165 -30 -79 -29 -96 1 -33 44 90
64 219 43 273 -5 13 -10 -14 -13 -75z"/>
<path d="M2463 2295 c6 -34 5 -35 -26 -35 -29 0 -30 -1 -11 -15 18 -14 18 -16
2 -26 -23 -13 -23 -29 0 -29 15 0 18 -6 14 -30 -5 -35 8 -39 27 -8 13 21 13
21 27 -11 12 -28 16 -31 29 -21 10 8 13 21 8 39 -6 25 -5 25 14 9 11 -10 22
-18 25 -18 6 0 38 92 38 110 0 9 -11 10 -36 6 -33 -7 -35 -6 -25 13 6 11 11
24 11 30 0 15 -50 14 -50 -1 0 -7 -5 -5 -11 5 -5 9 -17 17 -26 17 -12 0 -14
-7 -10 -35z"/>
<path d="M2510 871 c0 -5 5 -13 10 -16 6 -3 10 -2 10 4 0 5 -4 13 -10 16 -5 3
-10 2 -10 -4z"/>
<path d="M2577 840 c-9 -11 -24 -20 -34 -20 -9 0 -14 -3 -10 -6 10 -10 47 7
57 27 14 24 9 24 -13 -1z"/>
<path d="M2500 835 c0 -8 4 -15 10 -15 5 0 7 7 4 15 -4 8 -8 15 -10 15 -2 0
-4 -7 -4 -15z"/>
</g>
</svg>
